<svg width="48" height="48" viewBox="0 0 48 48" fill="none" xmlns="http://www.w3.org/2000/svg">
<path d="M0.656939 29.9261C0.809034 38.5849 10.0772 45.2043 15.9996 46.3465C18.1733 46.7828 18.675 46.9134 19.1854 46.9791C19.6278 47.0361 20.0768 47.0444 21.6267 47.1611C24.4215 47.6884 27.3823 47.699 30.2592 47.4272C38.4522 47.4272 50.8178 36.3862 47.424 19.4087C47.1341 17.4047 46.5829 15.4798 45.7565 13.7752C43.6327 9.39457 40.1672 5.51021 35.8957 3.66018C35.8127 3.61652 35.7276 3.57164 35.6405 3.52568C33.4784 2.38469 30.0635 0.58254 25.2046 0.58252C19.7138 0.582497 12.8053 1.73653 8.17976 5.47513C1.23999 11.0842 -1.34302 20.0539 0.656939 29.9261Z" fill="#BAEBFF"/>
<path d="M9.9975 24.7346C9.9975 17.594 15.9105 11.7729 23.25 11.7729C30.5895 11.7729 36.5025 17.5945 36.5025 24.7346C36.5025 31.8746 30.5895 37.6963 23.25 37.6963C15.9105 37.6963 9.9975 31.8746 9.9975 24.7346Z" fill="white" stroke="#202B93" stroke-width="1.995"/>
<path d="M14.3909 30.4998H22.2497V28.5943H17.6205V28.519L19.23 26.9418C21.4961 24.8748 22.1044 23.8413 22.1044 22.5872C22.1044 20.6763 20.5434 19.3252 18.1803 19.3252C15.8658 19.3252 14.2778 20.7086 14.2832 22.8724H16.4955C16.4902 21.8174 17.1576 21.1715 18.1642 21.1715C19.1331 21.1715 19.8544 21.7744 19.8544 22.7433C19.8544 23.6207 19.3161 24.2235 18.3149 25.187L14.3909 28.8204V30.4998Z" fill="#202B93"/>
<path d="M23.5349 28.562H28.8261V30.4998H31.0546V28.562H32.4218V26.6942H31.0546V19.4759H28.1371L23.5349 26.7265V28.562ZM28.8692 26.6942H25.8818V26.6081L28.7831 22.0166H28.8692V26.6942Z" fill="#202B93"/>
</svg>
