<svg width="48" height="48" viewBox="0 0 48 48" fill="none" xmlns="http://www.w3.org/2000/svg">
<path d="M0.656939 29.4364C0.809034 38.0951 10.0772 44.7146 15.9996 45.8567C18.1733 46.2931 18.675 46.4236 19.1854 46.4894C19.6278 46.5463 20.0768 46.5547 21.6267 46.6713C24.4215 47.1987 27.3823 47.2092 30.2592 46.9374C38.4522 46.9374 50.8178 35.8965 47.424 18.919C47.1341 16.915 46.5829 14.99 45.7565 13.2855C43.6327 8.90482 40.1672 5.02046 35.8957 3.17043C35.8127 3.12678 35.7276 3.08189 35.6405 3.03593C33.4784 1.89495 30.0635 0.0927935 25.2046 0.0927734C19.7138 0.0927507 12.8053 1.24678 8.17976 4.98539C1.23999 10.5945 -1.34302 19.5641 0.656939 29.4364Z" fill="#BAEBFF"/>
<rect x="9.0944" y="19.0558" width="26.1208" height="17.3343" rx="0.998031" transform="rotate(-15 9.0944 19.0558)" stroke="#202B93" stroke-width="1.99606"/>
<rect x="9.31445" y="23.0654" width="27.2382" height="4.39325" transform="rotate(-15 9.31445 23.0654)" fill="#202B93"/>
<path d="M0.656939 29.4364C0.809034 38.0951 10.0772 44.7146 15.9996 45.8567C18.1733 46.2931 18.675 46.4236 19.1854 46.4894C19.6278 46.5463 20.0768 46.5547 21.6267 46.6713C24.4215 47.1987 27.3823 47.2092 30.2592 46.9374C38.4522 46.9374 50.8178 35.8965 47.424 18.919C47.1341 16.915 46.5829 14.99 45.7565 13.2855C43.6327 8.90482 40.1672 5.02046 35.8957 3.17043C35.8127 3.12678 35.7276 3.08189 35.6405 3.03593C33.4784 1.89495 30.0635 0.0927935 25.2046 0.0927734C19.7138 0.0927507 12.8053 1.24678 8.17976 4.98539C1.23999 10.5945 -1.34302 19.5641 0.656939 29.4364Z" fill="#BAEBFF"/>
<path d="M25.5647 14.7936C26.536 14.3631 27.5214 11.3398 27.6322 10.5H20.4213C20.5308 11.3365 21.5085 14.3576 22.4758 14.7882C19.1383 16.6269 12.0524 20.6445 12.0524 25.3177C12.0524 31.0285 10.5762 34.5 23.2887 34.5C36 34.5 36 31.0285 36 25.3177C36 20.6502 28.8871 16.6382 25.5647 14.7939V14.7936Z" fill="#202B93"/>
<path d="M28.5 21L25.5 25.5L28.5 27L25.5 30" stroke="white" stroke-width="1.5"/>
</svg>
