<svg width="49" height="48" viewBox="0 0 49 48" fill="none" xmlns="http://www.w3.org/2000/svg">
<path d="M1.15694 29.9256C1.30903 38.5844 10.5772 45.2038 16.4996 46.346C18.6733 46.7824 19.175 46.9129 19.6854 46.9786C20.1278 47.0356 20.5768 47.0439 22.1267 47.1606C24.9215 47.6879 27.8823 47.6985 30.7592 47.4267C38.9522 47.4267 51.3178 36.3857 47.924 19.4082C47.6341 17.4042 47.0829 15.4793 46.2565 13.7747C44.1327 9.39408 40.6672 5.50972 36.3957 3.65969C36.3127 3.61603 36.2276 3.57115 36.1405 3.52519C33.9784 2.3842 30.5635 0.582051 25.7046 0.582031C20.2138 0.582009 13.3053 1.73604 8.67976 5.47464C1.73999 11.0837 -0.843018 20.0534 1.15694 29.9256Z" fill="#BAEBFF"/>
<path d="M10.4975 24.7346C10.4975 17.594 16.4105 11.7729 23.75 11.7729C31.0895 11.7729 37.0025 17.5945 37.0025 24.7346C37.0025 31.8746 31.0895 37.6963 23.75 37.6963C16.4105 37.6963 10.4975 31.8746 10.4975 24.7346Z" fill="white" stroke="#202B93" stroke-width="1.995"/>
<path d="M14.8911 30.4998H22.75V28.5943H18.1208V28.519L19.7302 26.9418C21.9964 24.8748 22.6046 23.8413 22.6046 22.5872C22.6046 20.6763 21.0436 19.3252 18.6806 19.3252C16.366 19.3252 14.7781 20.7086 14.7835 22.8724H16.9958C16.9904 21.8174 17.6579 21.1715 18.6644 21.1715C19.6333 21.1715 20.3546 21.7744 20.3546 22.7433C20.3546 23.6207 19.8164 24.2235 18.8152 25.187L14.8911 28.8204V30.4998Z" fill="#202B93"/>
<path d="M24.0351 28.562H29.3264V30.4998H31.5548V28.562H32.9221V26.6942H31.5548V19.4759H28.6374L24.0351 26.7265V28.562ZM29.3694 26.6942H26.382V26.6081L29.2833 22.0166H29.3694V26.6942Z" fill="#202B93"/>
</svg>
