<svg width="49" height="48" viewBox="0 0 49 48" fill="none" xmlns="http://www.w3.org/2000/svg">
<path d="M1.15694 29.4364C1.30903 38.0951 10.5772 44.7146 16.4996 45.8567C18.6733 46.2931 19.175 46.4236 19.6854 46.4894C20.1278 46.5463 20.5768 46.5547 22.1267 46.6713C24.9215 47.1987 27.8823 47.2092 30.7592 46.9374C38.9522 46.9374 51.3178 35.8965 47.924 18.919C47.6341 16.915 47.0829 14.99 46.2565 13.2855C44.1327 8.90482 40.6672 5.02046 36.3957 3.17043C36.3127 3.12678 36.2276 3.08189 36.1405 3.03593C33.9784 1.89495 30.5635 0.0927935 25.7046 0.0927734C20.2138 0.0927507 13.3053 1.24678 8.67976 4.98539C1.73999 10.5945 -0.843018 19.5641 1.15694 29.4364Z" fill="#BAEBFF"/>
<path d="M26.0647 14.7936C27.036 14.3631 28.0214 11.3398 28.1322 10.5H20.9213C21.0308 11.3365 22.0085 14.3576 22.9758 14.7882C19.6383 16.6269 12.5524 20.6445 12.5524 25.3177C12.5524 31.0285 11.0762 34.5 23.7887 34.5C36.5 34.5 36.5 31.0285 36.5 25.3177C36.5 20.6502 29.3871 16.6382 26.0647 14.7939V14.7936Z" fill="#202B93"/>
<path d="M29 21L26 25.5L29 27L26 30" stroke="white" stroke-width="1.5"/>
</svg>
