<svg width="48" height="48" viewBox="0 0 48 48" fill="none" xmlns="http://www.w3.org/2000/svg">
<path d="M0.656939 29.9549C0.809034 38.7941 10.0772 45.5514 15.9996 46.7174C18.1733 47.1628 18.675 47.2961 19.1854 47.3632C19.6278 47.4214 20.0768 47.4299 21.6267 47.5489C24.4215 48.0873 27.3823 48.098 30.2592 47.8206C38.4522 47.8206 50.8178 36.5496 47.424 19.2184C47.1341 17.1726 46.5829 15.2076 45.7565 13.4675C43.6327 8.99563 40.1672 5.03035 35.8957 3.14177C35.8127 3.09721 35.7276 3.05139 35.6405 3.00447C33.4784 1.83972 30.0635 2.05124e-05 25.2046 3.42113e-10C19.7138 -2.3179e-05 12.8053 1.17805 8.17976 4.99454C1.23999 10.7205 -1.34302 19.877 0.656939 29.9549Z" fill="#BAEBFF"/>
<rect x="15" y="9" width="18" height="30.5" rx="4" fill="white" stroke="#202B93" stroke-width="2"/>
<circle cx="24" cy="35.5" r="1.25" fill="#202B93"/>
<rect x="20.25" y="13" width="3.75" height="1.25" rx="0.625" fill="#202B93"/>
<rect x="25.25" y="13" width="1.25" height="1.25" rx="0.625" fill="#202B93"/>
<circle cx="24" cy="24.25" r="6.25" fill="#202B93"/>
<path d="M26.8786 21.75C25.6904 23.1114 24.3167 24.6766 23.088 26.0827L21.0521 24.1081L20.25 25.1835L22.7179 27.5813L23.1536 28L23.5546 27.5416C24.87 26.0353 26.4327 24.2552 27.75 22.7462L26.8786 21.75Z" fill="white"/>
</svg>
