<svg width="48" height="48" viewBox="0 0 48 48" fill="none" xmlns="http://www.w3.org/2000/svg">
<path d="M0.656939 29.9256C0.809034 38.5844 10.0772 45.2038 15.9996 46.346C18.1733 46.7824 18.675 46.9129 19.1854 46.9786C19.6278 47.0356 20.0768 47.0439 21.6267 47.1606C24.4215 47.6879 27.3823 47.6985 30.2592 47.4267C38.4522 47.4267 50.8178 36.3857 47.424 19.4082C47.1341 17.4042 46.5829 15.4793 45.7565 13.7747C43.6327 9.39408 40.1672 5.50972 35.8957 3.65969C35.8127 3.61603 35.7276 3.57115 35.6405 3.52519C33.4784 2.3842 30.0635 0.582051 25.2046 0.582031C19.7138 0.582009 12.8053 1.73604 8.17976 5.47464C1.23999 11.0837 -1.34302 20.0534 0.656939 29.9256Z" fill="#BAEBFF"/>
<path d="M21.193 11.8902L21.6126 11.9788L21.966 11.7359L23.9999 10.3383L26.0338 11.7359L26.3873 11.9788L26.8069 11.8902L29.2316 11.3779L30.5859 13.4491L30.8193 13.806L31.2383 13.8847L33.6597 14.3394L34.115 16.7753L34.1935 17.1949L34.5508 17.4285L36.6242 18.7842L36.1235 21.1966L36.0373 21.6122L36.2763 21.963L37.6658 24.0016L36.2749 26.0537L36.0376 26.4038L36.1235 26.818L36.6242 29.2303L34.5508 30.586L34.1935 30.8196L34.115 31.2393L33.6597 33.6751L31.2383 34.1298L30.8193 34.2085L30.5859 34.5654L29.2316 36.6366L26.8069 36.1244L26.3895 36.0362L26.037 36.2765L23.9999 37.6648L21.9629 36.2765L21.6104 36.0362L21.193 36.1244L18.7682 36.6366L17.4139 34.5654L17.1806 34.2085L16.7615 34.1298L14.3401 33.6751L13.8848 31.2393L13.8064 30.8196L13.4491 30.586L11.3757 29.2303L11.8763 26.818L11.9623 26.4038L11.725 26.0537L10.3341 24.0016L11.7235 21.963L11.9626 21.6122L11.8763 21.1966L11.3757 18.7842L13.4491 17.4285L13.8064 17.1949L13.8848 16.7753L14.3401 14.3394L16.7615 13.8847L17.1806 13.806L17.4139 13.4491L18.7682 11.3779L21.193 11.8902Z" fill="white" stroke="#202B93" stroke-width="2"/>
<path d="M23.7486 17.2206C23.8873 16.9265 24.1135 16.9265 24.2516 17.2206L25.9966 20.933C26.1353 21.2272 26.5014 21.5071 26.8106 21.5536L30.7133 22.1504C31.0225 22.1975 31.093 22.4237 30.869 22.6529L28.0452 25.5423C27.8212 25.7714 27.6814 26.2238 27.7342 26.5472L28.4004 30.6277C28.4533 30.9512 28.2697 31.0908 27.9934 30.938L24.5028 29.0106C24.226 28.8578 23.773 28.8578 23.4967 29.0106L20.0062 30.9368C19.7294 31.0896 19.5463 30.95 19.5992 30.6265L20.2659 26.546C20.3188 26.2225 20.179 25.7702 19.955 25.5411L17.1312 22.6516C16.9072 22.4225 16.9771 22.1969 17.2869 22.1492L21.1896 21.5524C21.4988 21.5053 21.8654 21.2254 22.0036 20.9318L23.7486 17.2206Z" fill="#202B93"/>
</svg>
