<svg width="48" height="49" viewBox="0 0 48 49" fill="none" xmlns="http://www.w3.org/2000/svg">
<path d="M0.656939 30.4549C0.809034 39.2941 10.0772 46.0514 15.9996 47.2174C18.1733 47.6628 18.675 47.7961 19.1854 47.8632C19.6278 47.9214 20.0768 47.9299 21.6267 48.0489C24.4215 48.5873 27.3823 48.598 30.2592 48.3206C38.4522 48.3206 50.8178 37.0496 47.424 19.7184C47.1341 17.6726 46.5829 15.7076 45.7565 13.9675C43.6327 9.49563 40.1672 5.53035 35.8957 3.64177C35.8127 3.59721 35.7276 3.55139 35.6405 3.50447C33.4784 2.33972 30.0635 0.500021 25.2046 0.5C19.7138 0.499977 12.8053 1.67805 8.17976 5.49454C1.23999 11.2205 -1.34302 20.377 0.656939 30.4549Z" fill="#BAEBFF"/>
<rect x="26.396" y="19.5039" width="6.25461" height="5.00369" fill="white"/>
<path fill-rule="evenodd" clip-rule="evenodd" d="M27.4917 14.5C27.9153 14.5 28.2586 14.8434 28.2586 15.267V17.2007C28.2586 17.6243 28.602 17.9677 29.0256 17.9677H31.0196C32.554 17.9677 33.1666 19.8746 33.3967 20.5688L34.0981 22.9493C34.1367 23.0804 34.2566 23.1707 34.3932 23.1716C35.6975 23.1716 36.694 24.2982 36.694 25.7728V27.1235C36.694 27.3354 36.8661 27.5071 37.078 27.5067C37.2899 27.5062 37.4619 27.6779 37.4619 27.8898V30.2065C37.4619 30.6301 37.1185 30.9735 36.6949 30.9735H35.1616C34.738 30.9735 34.4027 31.3204 34.3194 31.7358C34.01 33.2794 32.7827 34.4412 31.3274 34.4412C29.872 34.4412 28.6447 33.2794 28.3353 31.7358C28.252 31.3204 27.9167 30.9735 27.4931 30.9735H21.3581C20.9345 30.9735 20.5992 31.3204 20.5159 31.7358C20.2065 33.2794 18.9792 34.4412 17.5239 34.4412C16.0685 34.4412 14.8412 33.2794 14.5318 31.7358C14.4485 31.3204 14.1132 30.9735 13.6896 30.9735H12.1561C11.7326 30.9735 11.3892 30.6302 11.3891 30.2067L11.3852 15.2672C11.3851 14.8435 11.7285 14.5 12.1522 14.5H27.4917ZM32.3225 21.0029C32.0924 20.2226 31.7084 19.2683 31.0182 19.2683L29.0251 19.2694C28.6017 19.2697 28.2586 19.613 28.2586 20.0364V22.4047C28.2586 22.8282 28.602 23.1716 29.0256 23.1716H31.9222C32.431 23.1716 32.7988 22.6853 32.6602 22.1957L32.3225 21.0029Z" fill="#202B93"/>
<circle cx="17.6396" cy="32.0131" r="1.25092" fill="white"/>
<circle cx="31.3994" cy="32.0131" r="1.25092" fill="white"/>
</svg>
