<svg width="48" height="48" viewBox="0 0 48 48" fill="none" xmlns="http://www.w3.org/2000/svg">
<rect x="9.31439" y="23.0654" width="27.2382" height="4.39325" transform="rotate(-15 9.31439 23.0654)" fill="#1C2026"/>
<path d="M0.656939 29.4361C0.809034 38.0949 10.0772 44.7143 15.9996 45.8565C18.1733 46.2928 18.675 46.4234 19.1854 46.4891C19.6278 46.5461 20.0768 46.5544 21.6267 46.6711C24.4215 47.1984 27.3823 47.209 30.2592 46.9372C38.4522 46.9372 50.8178 35.8962 47.424 18.9187C47.1341 16.9147 46.5829 14.9898 45.7565 13.2852C43.6327 8.90458 40.1672 5.02021 35.8957 3.17019C35.8127 3.12653 35.7276 3.08165 35.6405 3.03569C33.4784 1.8947 30.0635 0.0925494 25.2046 0.0925293C19.7138 0.0925066 12.8053 1.24654 8.17976 4.98514C1.23999 10.5942 -1.34302 19.5639 0.656939 29.4361Z" fill="#BAEBFF"/>
<path fill-rule="evenodd" clip-rule="evenodd" d="M14.1206 13.1873H22.213C23.5974 13.1873 23.5974 15.5039 22.213 15.5039C18.9537 15.5039 18.905 19.669 22.2734 19.669C23.4068 19.669 24.3337 20.5959 24.3337 21.7293V30.7526C24.3337 31.8859 23.4068 32.8129 22.2734 32.8129H14.0602C12.9269 32.8115 12 31.8846 12 30.7513V21.728C12 20.5959 12.9269 19.669 14.0602 19.669C17.4287 19.669 17.3787 15.5039 14.1207 15.5039C12.7363 15.5039 12.7361 13.1873 14.1206 13.1873ZM27.7733 16.725H34.4076C35.5422 16.725 35.5422 18.6235 34.4076 18.6235C31.736 18.6235 31.6965 22.0381 34.4562 22.0381C35.3844 22.0381 36.1457 22.7981 36.1457 23.7276V31.1233C36.1457 32.0515 35.3857 32.8127 34.4562 32.8127H27.7246C26.7964 32.8127 26.0352 32.0528 26.0352 31.1233V23.7276C26.0352 22.7994 26.7951 22.0381 27.7246 22.0381C30.4856 22.0381 30.4449 18.6235 27.7733 18.6235C26.6386 18.6235 26.6386 16.725 27.7733 16.725Z" fill="#202B93"/>
</svg>
