<svg width="48" height="49" viewBox="0 0 48 49" fill="none" xmlns="http://www.w3.org/2000/svg">
<path d="M0.656939 30.4256C0.809034 39.0844 10.0772 45.7038 15.9996 46.846C18.1733 47.2824 18.675 47.4129 19.1854 47.4786C19.6278 47.5356 20.0768 47.5439 21.6267 47.6606C24.4215 48.1879 27.3823 48.1985 30.2592 47.9267C38.4522 47.9267 50.8178 36.8857 47.424 19.9082C47.1341 17.9042 46.5829 15.9793 45.7565 14.2747C43.6327 9.89408 40.1672 6.00972 35.8957 4.15969C35.8127 4.11603 35.7276 4.07115 35.6405 4.02519C33.4784 2.8842 30.0635 1.08205 25.2046 1.08203C19.7138 1.08201 12.8053 2.23604 8.17976 5.97464C1.23999 11.5837 -1.34302 20.5534 0.656939 30.4256Z" fill="#FFD06D"/>
<rect x="9.0944" y="20.0553" width="26.1208" height="17.3343" rx="0.998031" transform="rotate(-15 9.0944 20.0553)" stroke="#1C2026" stroke-width="1.99606"/>
<rect x="9.31445" y="24.0654" width="27.2382" height="4.39325" transform="rotate(-15 9.31445 24.0654)" fill="#1C2026"/>
<path d="M0.656939 30.4256C0.809034 39.0844 10.0772 45.7038 15.9996 46.846C18.1733 47.2824 18.675 47.4129 19.1854 47.4786C19.6278 47.5356 20.0768 47.5439 21.6267 47.6606C24.4215 48.1879 27.3823 48.1985 30.2592 47.9267C38.4522 47.9267 50.8178 36.8857 47.424 19.9082C47.1341 17.9042 46.5829 15.9793 45.7565 14.2747C43.6327 9.89408 40.1672 6.00972 35.8957 4.15969C35.8127 4.11603 35.7276 4.07115 35.6405 4.02519C33.4784 2.8842 30.0635 1.08205 25.2046 1.08203C19.7138 1.08201 12.8053 2.23604 8.17976 5.97464C1.23999 11.5837 -1.34302 20.5534 0.656939 30.4256Z" fill="#FFD06D"/>
<rect x="9.0944" y="20.0553" width="26.1208" height="17.3343" rx="0.998031" transform="rotate(-15 9.0944 20.0553)" fill="white" stroke="#1C2026" stroke-width="1.99606"/>
<rect x="9.31445" y="24.0654" width="27.2382" height="4.39325" transform="rotate(-15 9.31445 24.0654)" fill="#1C2026"/>
<rect x="14.9707" y="28.7939" width="6.76462" height="1.7468" transform="rotate(-15 14.9707 28.7939)" fill="#1C2026"/>
</svg>
