<svg width="48" height="48" viewBox="0 0 48 48" fill="none" xmlns="http://www.w3.org/2000/svg">
<path d="M0.656939 29.9549C0.809034 38.7941 10.0772 45.5514 15.9996 46.7174C18.1733 47.1628 18.675 47.2961 19.1854 47.3632C19.6278 47.4214 20.0768 47.4299 21.6267 47.5489C24.4215 48.0873 27.3823 48.098 30.2592 47.8206C38.4522 47.8206 50.8178 36.5496 47.424 19.2184C47.1341 17.1726 46.5829 15.2076 45.7565 13.4675C43.6327 8.99563 40.1672 5.03035 35.8957 3.14177C35.8127 3.09721 35.7276 3.05139 35.6405 3.00447C33.4784 1.83972 30.0635 2.05124e-05 25.2046 3.42113e-10C19.7138 -2.3179e-05 12.8053 1.17805 8.17976 4.99454C1.23999 10.7205 -1.34302 19.877 0.656939 29.9549Z" fill="#BAEBFF"/>
<path d="M28.8662 30.8897L32.7136 30.8265C34.0893 30.804 34.6952 29.0828 33.6372 28.2034L22.4308 18.8889C21.4646 18.0858 20 18.773 20 20.0294V34.1434C20 35.4736 21.6159 36.1311 22.5446 35.1788L25.2389 32.4159C25.2406 32.4155 25.243 32.4151 25.2459 32.415L27.4512 37.0156C27.7942 37.7312 28.6396 38.0499 29.3696 37.7389L30.2519 37.3631C31.0291 37.032 31.3731 36.1195 31.0079 35.3578L28.8662 30.8897Z" fill="white" stroke="#202B93" stroke-width="2"/>
<path d="M16.1604 25C16.0303 24.7991 15.9097 24.5906 15.7995 24.3754C15.2896 23.3801 15 22.2398 15 21.0278C15 17.1464 17.9698 14 21.6333 14C24.6483 14 27.1934 16.1312 28 19.0492" stroke="#202B93" stroke-width="2"/>
<path d="M31.58 24.0336C31.8534 23.0572 32 22.0244 32 20.9558C32 14.9051 27.299 10 21.5 10C15.701 10 11 14.9051 11 20.9558C11 25.4484 13.5916 29.3094 17.3 31" stroke="#202B93" stroke-width="2"/>
</svg>
