<svg width="48" height="49" viewBox="0 0 48 49" fill="none" xmlns="http://www.w3.org/2000/svg">
<path d="M0.656939 30.4549C0.809034 39.2941 10.0772 46.0514 15.9996 47.2174C18.1733 47.6628 18.675 47.7961 19.1854 47.8632C19.6278 47.9214 20.0768 47.9299 21.6267 48.0489C24.4215 48.5873 27.3823 48.598 30.2592 48.3206C38.4522 48.3206 50.8178 37.0496 47.424 19.7184C47.1341 17.6726 46.5829 15.7076 45.7565 13.9675C43.6327 9.49563 40.1672 5.53035 35.8957 3.64177C35.8127 3.59721 35.7276 3.55139 35.6405 3.50447C33.4784 2.33972 30.0635 0.500021 25.2046 0.5C19.7138 0.499977 12.8053 1.67805 8.17976 5.49454C1.23999 11.2205 -1.34302 20.377 0.656939 30.4549Z" fill="#FFD06D"/>
<rect x="9.0944" y="19.4616" width="26.1208" height="17.3343" rx="0.998031" transform="rotate(-15 9.0944 19.4616)" stroke="#1C2026" stroke-width="1.99606"/>
<rect x="9.31445" y="23.4707" width="27.2382" height="4.39325" transform="rotate(-15 9.31445 23.4707)" fill="#1C2026"/>
<path d="M0.656939 30.4549C0.809034 39.2941 10.0772 46.0514 15.9996 47.2174C18.1733 47.6628 18.675 47.7961 19.1854 47.8632C19.6278 47.9214 20.0768 47.9299 21.6267 48.0489C24.4215 48.5873 27.3823 48.598 30.2592 48.3206C38.4522 48.3206 50.8178 37.0496 47.424 19.7184C47.1341 17.6726 46.5829 15.7076 45.7565 13.9675C43.6327 9.49563 40.1672 5.53035 35.8957 3.64177C35.8127 3.59721 35.7276 3.55139 35.6405 3.50447C33.4784 2.33972 30.0635 0.500021 25.2046 0.5C19.7138 0.499977 12.8053 1.67805 8.17976 5.49454C1.23999 11.2205 -1.34302 20.377 0.656939 30.4549Z" fill="#FFD06D"/>
<rect x="16.9663" y="11.4785" width="13.9724" height="23.9528" fill="white"/>
<path fill-rule="evenodd" clip-rule="evenodd" d="M17.4365 11.5H30.5623C31.3547 11.5 32 12.1177 32 12.8762V34.1238C32 34.8823 31.3547 35.5 30.5623 35.5H17.4365C16.6661 35.5 16.0307 34.9152 16 34.1789V12.8271C16.0307 12.0909 16.6649 11.5061 17.4365 11.5061V11.5ZM22.0023 21.7642H23.5896V25.2366H22.0023V21.7642ZM19.5893 13.1414L25.1563 15.9784C25.4446 16.1252 25.6077 16.407 25.6077 16.6994C25.6114 21.2333 25.6114 25.7684 25.6114 30.3023C25.6114 30.6416 25.3955 30.9329 25.0876 31.0573L19.5881 33.8592H30.2839V13.1413H19.5881L19.5893 13.1414Z" fill="#1C2026"/>
</svg>
