<svg width="32" height="32" viewBox="0 0 32 32" fill="none" xmlns="http://www.w3.org/2000/svg">
<rect y="0.998047" width="32" height="31" rx="5" fill="#0890F1"/>
<path d="M5.41863 8.02569C4.52934 8.63815 4 9.63705 4 10.7028V17.5098C4 19.0032 4.76603 20.3964 6.03832 21.217L14.1672 26.4599C15.2796 27.1774 16.7205 27.1774 17.8328 26.4599L25.9617 21.217C27.234 20.3964 28 19.0032 28 17.5098V10.7028C28 9.63705 27.4707 8.63815 26.5814 8.02569L24.5 6.59223C23.2531 5.73349 21.5714 5.81251 20.4139 6.78422L18.1691 8.66874C16.9205 9.71696 15.0795 9.71695 13.8309 8.66874L11.5861 6.78422C10.4286 5.81251 8.7469 5.73349 7.50002 6.59223L5.41863 8.02569Z" fill="#FFD06D"/>
</svg>
