<svg width="48" height="48" viewBox="0 0 48 48" fill="none" xmlns="http://www.w3.org/2000/svg">
<path d="M0.656939 29.9549C0.809034 38.7941 10.0772 45.5514 15.9996 46.7174C18.1733 47.1628 18.675 47.2961 19.1854 47.3632C19.6278 47.4214 20.0768 47.4299 21.6267 47.5489C24.4215 48.0873 27.3823 48.098 30.2592 47.8206C38.4522 47.8206 50.8178 36.5496 47.424 19.2184C47.1341 17.1726 46.5829 15.2076 45.7565 13.4675C43.6327 8.99563 40.1672 5.03035 35.8957 3.14177C35.8127 3.09721 35.7276 3.05139 35.6405 3.00447C33.4784 1.83972 30.0635 2.05124e-05 25.2046 3.42113e-10C19.7138 -2.3179e-05 12.8053 1.17805 8.17976 4.99454C1.23999 10.7205 -1.34302 19.877 0.656939 29.9549Z" fill="#BAEBFF"/>
<path d="M21.8715 12.0001C21.8715 12.0001 21.8715 12.0001 21.8715 12.0001C21.7504 12.0001 21.6697 12.0002 21.589 12.0404C17.0679 13.6522 14.0403 17.9231 14 22.718C14 28.923 19.0864 34 25.3028 34C30.1065 34 34.3853 30.9377 35.9596 26.4249C36 26.3443 36 26.2638 36 26.1429C36 25.6996 35.6367 25.337 35.1927 25.337C35.1119 25.337 34.9908 25.337 34.9101 25.3773C33.9009 25.7399 32.811 25.9011 31.721 25.9414C26.3523 25.9414 22.0329 21.63 22.0329 16.2711C22.0329 15.1832 22.2348 14.1356 22.5981 13.0879C22.6385 13.0073 22.6385 12.9267 22.6385 12.8058C22.6788 12.3626 22.3156 12.0403 21.8716 12C21.8715 12 21.8715 12 21.8715 12.0001Z" fill="white"/>
<path fill-rule="evenodd" clip-rule="evenodd" d="M22.3529 13.8877C22.3526 13.8891 22.3522 13.8904 22.3519 13.8918C22.3472 13.9095 22.3425 13.9272 22.3379 13.945C22.2557 13.9648 22.1714 13.9796 22.0852 13.9888C22.0839 13.9893 22.0825 13.9898 22.0811 13.9903C22.1686 13.9815 22.2541 13.9671 22.3373 13.9474C22.1396 14.711 22.0329 15.4804 22.0329 16.2711C22.0329 21.63 26.3523 25.9414 31.721 25.9414C32.5346 25.9113 33.3482 25.8139 34.1281 25.6156C34.1293 25.6153 34.1304 25.615 34.1316 25.6147C34.1777 25.603 34.2238 25.5909 34.2697 25.5784C34.4862 25.5196 34.6999 25.4528 34.9101 25.3773C34.9908 25.337 35.1119 25.337 35.1927 25.337C35.6367 25.337 36 25.6996 36 26.1429C36 26.2638 36 26.3443 35.9596 26.4249C35.889 26.6274 35.8129 26.827 35.7316 27.0235C35.7018 27.0955 35.6713 27.167 35.6401 27.2381C35.6398 27.2389 35.6394 27.2397 35.639 27.2406C33.8571 31.3027 29.8111 34 25.3028 34C19.0864 34 14 28.923 14 22.718C14.0354 18.5055 16.3765 14.6974 20.0103 12.7416C20.062 12.8668 20.128 12.9907 20.2092 13.1121C20.1282 12.991 20.0624 12.8669 20.0108 12.7413C20.2432 12.6163 20.4808 12.4988 20.7235 12.3893C20.7247 12.3888 20.7259 12.3882 20.727 12.3877C20.8107 12.35 20.895 12.3132 20.9799 12.2773C21.1797 12.193 21.3828 12.1139 21.589 12.0404C21.6697 12.0002 21.7504 12.0001 21.8714 12.0001C21.8714 12.0001 21.8715 12.0001 21.8715 12.0001L21.8715 12.0001L21.8716 12C21.8716 12 21.8716 12 21.8716 12C22.3156 12.0403 22.6788 12.3627 22.6385 12.8058C22.6385 12.9267 22.6385 13.0073 22.5981 13.0879C22.5292 13.2865 22.4661 13.4851 22.4091 13.684C22.3897 13.7519 22.371 13.8198 22.3529 13.8877ZM20.1052 15.0224C17.602 16.7361 16.0291 19.5947 16 22.7264C16.0046 27.8195 20.1903 32 25.3028 32C28.4601 32 31.346 30.3888 33.0382 27.8445C32.6184 27.8947 32.2024 27.925 31.7949 27.94L31.758 27.9414H31.721C25.2512 27.9414 20.0329 22.738 20.0329 16.2711C20.0329 15.8479 20.0578 15.4319 20.1052 15.0224Z" fill="#202B93"/>
</svg>
