<svg width="48" height="49" viewBox="0 0 48 49" fill="none" xmlns="http://www.w3.org/2000/svg">
<path d="M0.656939 30.5536C0.809034 39.2123 10.0772 45.8318 15.9996 46.9739C18.1733 47.4103 18.675 47.5408 19.1854 47.6066C19.6278 47.6635 20.0768 47.6719 21.6267 47.7885C24.4215 48.3158 27.3823 48.3264 30.2592 48.0546C38.4522 48.0546 50.8178 37.0137 47.424 20.0362C47.1341 18.0321 46.5829 16.1072 45.7565 14.4027C43.6327 10.022 40.1672 6.13765 35.8957 4.28762C35.8127 4.24396 35.7276 4.19908 35.6405 4.15312C33.4784 3.01213 30.0635 1.20998 25.2046 1.20996C19.7138 1.20994 12.8053 2.36397 8.17976 6.10257C1.23999 11.7117 -1.34302 20.6813 0.656939 30.5536Z" fill="#FFD06D"/>
<rect x="9.0944" y="20.1852" width="26.1208" height="17.3343" rx="0.998031" transform="rotate(-15 9.0944 20.1852)" stroke="#1C2026" stroke-width="1.99606"/>
<rect x="9.31445" y="24.1953" width="27.2382" height="4.39325" transform="rotate(-15 9.31445 24.1953)" fill="#1C2026"/>
<path d="M0.656939 30.5536C0.809034 39.2123 10.0772 45.8318 15.9996 46.9739C18.1733 47.4103 18.675 47.5408 19.1854 47.6066C19.6278 47.6635 20.0768 47.6719 21.6267 47.7885C24.4215 48.3158 27.3823 48.3264 30.2592 48.0546C38.4522 48.0546 50.8178 37.0137 47.424 20.0362C47.1341 18.0321 46.5829 16.1072 45.7565 14.4027C43.6327 10.022 40.1672 6.13765 35.8957 4.28762C35.8127 4.24396 35.7276 4.19908 35.6405 4.15312C33.4784 3.01213 30.0635 1.20998 25.2046 1.20996C19.7138 1.20994 12.8053 2.36397 8.17976 6.10257C1.23999 11.7117 -1.34302 20.6813 0.656939 30.5536Z" fill="#FFD06D"/>
<g clip-path="url(#clip0)">
<path d="M31.7781 15.2035L31.5754 15.3252C30.9267 15.6495 30.2374 15.9739 29.5482 16.2982C27.8858 15.2035 25.9802 14.6359 23.9531 14.6359C18.1956 14.6359 13.5331 19.2986 13.5331 25.0559C13.5331 27.4886 14.3845 29.8808 15.9658 31.7458L16.3712 32.1918L14.7089 33.6109L14.344 33.1649C12.4384 30.8943 11.3843 28.0156 11.3843 25.0559C11.3843 18.0821 17.0606 12.4463 23.9938 12.4463C26.7914 12.4463 29.5889 13.4194 31.7785 15.2034L31.7781 15.2035Z" fill="#1C2026"/>
<path d="M36.5624 25.0555V25.6637H34.373V25.0555C34.373 23.5554 34.0486 22.0553 33.3999 20.6767L34.7784 18.6494C35.9542 20.5956 36.5624 22.7851 36.5624 25.0557V25.0555Z" fill="#1C2026"/>
<path d="M17.8522 33.8305C19.0787 34.0363 18.7695 35.876 17.543 35.6702C16.3175 35.4634 16.6257 33.6247 17.8522 33.8305Z" fill="#1C2026"/>
<path d="M36.4006 29.5975C36.4006 30.6274 35.5653 31.4626 34.5355 31.4626C33.5057 31.4626 32.6704 30.6273 32.6704 29.5975C32.6704 28.5677 33.5057 27.7324 34.5355 27.7324C35.5653 27.7324 36.4006 28.5677 36.4006 29.5975Z" fill="#1C2026"/>
<path d="M31.1295 33.4493C30.8862 33.2871 30.6024 33.2061 30.3186 33.2061C29.832 33.2061 29.3455 33.4493 29.1022 33.8548C28.6562 34.544 28.859 35.436 29.5077 35.882C29.751 36.0442 30.0348 36.1253 30.3186 36.1253C30.8051 36.1253 31.2917 35.882 31.5349 35.4766C31.9809 34.7873 31.8188 33.8953 31.1295 33.4493Z" fill="#1C2026"/>
<path d="M24.0341 35.2734C23.8314 35.2734 23.6692 35.314 23.507 35.3951C23.1827 35.5167 22.9394 35.8005 22.8178 36.1249C22.6962 36.4492 22.6961 36.8141 22.8178 37.1385C23.0205 37.625 23.507 37.9494 24.0341 37.9494C24.2369 37.9494 24.399 37.9089 24.5612 37.8278C24.8856 37.7061 25.1288 37.4223 25.2505 37.098C25.3721 36.7736 25.3721 36.4087 25.2505 36.0843C25.0072 35.5978 24.5612 35.2734 24.0341 35.2734Z" fill="#1C2026"/>
<path d="M33.8867 17.1908C33.9678 17.0286 34.0083 16.7854 33.8867 16.6232C33.8867 16.5826 33.8462 16.5826 33.8462 16.5421L33.7651 16.461C33.6029 16.2988 33.3191 16.2583 33.0758 16.3394C33.0353 16.3394 32.9947 16.3799 32.9542 16.3799L32.4271 16.6637C31.3324 17.1908 30.2377 17.7179 29.1835 18.245C28.5753 18.5288 27.9671 18.8532 27.359 19.137C25.7777 19.9074 24.1559 20.6777 22.5745 21.4886C20.9527 22.2995 20.1824 24.0835 20.7095 25.827C21.196 27.4083 22.6151 28.4219 24.237 28.4219C24.3991 28.4219 24.5208 28.4219 24.683 28.3813C25.7777 28.2597 26.7102 27.6515 27.44 26.5974C28.8591 24.5295 30.3188 22.4616 31.7377 20.3536L33.8867 17.1908Z" fill="#1C2026"/>
<circle cx="24.4521" cy="24.6787" r="1.49705" fill="white"/>
</g>
<defs>
<clipPath id="clip0">
<rect width="25.9488" height="25.9488" fill="white" transform="translate(10.9785 12.2031)"/>
</clipPath>
</defs>
</svg>
